<svg width="16" height="16" viewBox="0 0 16 16" fill="none" xmlns="http://www.w3.org/2000/svg">
<rect width="16" height="16" fill="#F2F2F2"/>
<g clip-path="url(#clip0_0_1)">
<rect width="1665" height="5584" transform="translate(-321 -12)" fill="white"/>
<rect x="-321" y="-12" width="1665" height="40" fill="#0E77AF"/>
<path fill-rule="evenodd" clip-rule="evenodd" d="M0 8C0 3.582 3.582 0 8 0C12.418 0 16 3.582 16 8C16 12.418 12.418 16 8 16C3.582 16 0 12.418 0 8ZM6.66667 10.6667V6.66667H5.33333V10.6667H6.66667ZM6 6.07267C5.59533 6.07267 5.26667 5.742 5.26667 5.33333C5.26667 4.92533 5.59467 4.594 6 4.594C6.40533 4.594 6.73333 4.92533 6.73333 5.33333C6.73333 5.742 6.40467 6.07267 6 6.07267ZM10.0013 10.6667H11.3333V8.42733C11.3333 6.238 9.248 6.318 8.66667 7.39533V6.66667H7.33333V10.6667H8.66667V8.75933C8.66667 7.61133 10.0013 7.50533 10.0013 8.75933V10.6667Z" fill="white"/>
</g>
<defs>
<clipPath id="clip0_0_1">
<rect width="1665" height="5584" fill="white" transform="translate(-321 -12)"/>
</clipPath>
</defs>
</svg>
